<svg id="Layer_1" data-name="Layer 1" xmlns="http://www.w3.org/2000/svg" viewBox="0 0 480.19 110.68"><defs><style>.cls-1{fill:#202a44;}</style></defs><path class="cls-1" d="M223.16,427.79a3,3,0,0,1,.42,1.35,2.36,2.36,0,0,1-1.35,1.94L215,436.14a2.79,2.79,0,0,1-1.44.42c-1.09,0-1.85-1-2.27-1.6-1.77-2.45-4-4.13-7.25-4.13a8.56,8.56,0,0,0,0,17.11c3.29,0,5.48-1.69,7.25-4.13.42-.59,1.18-1.6,2.27-1.6a2.7,2.7,0,0,1,1.44.42l7.24,5.05a2.36,2.36,0,0,1,1.35,1.94,3,3,0,0,1-.42,1.35c-3.2,6.66-11.63,10.54-20,10.54-13.32,0-22.34-9.86-22.34-21.92,0-12.47,9.78-22.33,22.76-22.33,8.17,0,16.35,3.87,19.55,10.53" transform="translate(-180.85 -401.24)"/><path class="cls-1" d="M257.89,468c-1.77,5.9-4.38,8.93-7.59,11a21.07,21.07,0,0,1-10.79,3,20.21,20.21,0,0,1-9.77-2.45,14.83,14.83,0,0,1-3-2.19,2.72,2.72,0,0,1-.84-1.77,3.32,3.32,0,0,1,.67-1.77l4.56-6.74a2.19,2.19,0,0,1,1.68-.93,3.25,3.25,0,0,1,2.19.84,9,9,0,0,0,4.81,1.77,4.85,4.85,0,0,0,4.8-3.29l1.6-5.14H238.5a2.62,2.62,0,0,1-2.53-2l-10.7-36.41a7.55,7.55,0,0,1-.34-1.77c0-.84.59-1.52,1.77-1.52h12.48c1.09,0,1.77,1,2,2l6.91,28.66h1.1l7.25-28.66c.25-1,.92-2,2-2h11.71c1.18,0,1.77.68,1.77,1.52a7.35,7.35,0,0,1-.33,1.77Z" transform="translate(-180.85 -401.24)"/><path class="cls-1" d="M297.93,448a8.6,8.6,0,1,0-8.43-8.6,8.49,8.49,0,0,0,8.43,8.6m-8.51-26.63c2.19-2.53,6.32-4.13,11.12-4.13,10.87,0,20.48,8.26,20.48,22s-9.61,22.26-20.56,22.26c-3.8,0-8.77-1-11-3.88v.67a1.91,1.91,0,0,1-1.94,1.94H276.94A1.9,1.9,0,0,1,275,458.3V403.18a1.91,1.91,0,0,1,1.94-1.94h10.54a2,2,0,0,1,1.94,1.94Z" transform="translate(-180.85 -401.24)"/><path class="cls-1" d="M338.72,434.45h13.83c-.59-3.37-3.71-5.22-6.91-5.22s-6.33,1.85-6.92,5.22m15,10.54c.42-.59,1.18-1.6,2.27-1.6a2.7,2.7,0,0,1,1.44.42l7.16,4.47a2.15,2.15,0,0,1,1.35,1.85,3.16,3.16,0,0,1-.42,1.35c-3,6.4-11,10-19.47,10-13.74,0-22.34-9.7-22.34-21.83,0-12.48,9.19-22.42,22.08-22.42,13.32,0,20.91,10.62,20.91,20.82v1.77c0,1.18-.43,2.44-2.28,2.44h-26c.25,3.79,3.2,6.83,7.75,6.83a9.17,9.17,0,0,0,7.59-4.13" transform="translate(-180.85 -401.24)"/><path class="cls-1" d="M385.34,458.47a2,2,0,0,1-2,1.77H372.69a1.91,1.91,0,0,1-1.94-1.94V420.46a1.91,1.91,0,0,1,1.94-1.94h10a2,2,0,0,1,2,1.77v2.36c2.52-3.54,7.08-4.89,10.44-4.89h2.37c.92,0,2.27.34,2.27,2.53v10.37a2.41,2.41,0,0,1-2.61,2.61h-4.13c-5.56,0-7.75,1.43-7.75,6.24Z" transform="translate(-180.85 -401.24)"/><path class="cls-1" d="M422.42,417.26c8.6,0,13.82,2.95,16.1,4.72,1.18.93,1.43,1.35,1.43,1.94a3.63,3.63,0,0,1-.67,1.77l-3.54,5.9a1.63,1.63,0,0,1-1.52.84,5.23,5.23,0,0,1-2.78-1,24.38,24.38,0,0,0-9.86-2.61c-2.53,0-4.89.75-4.89,2.69,0,.85.51,1.69,2.11,2.19,5.73,1.86,22,.43,22,13.66,0,7.84-5.74,14.24-19.39,14.24-8.18,0-14.5-2.27-18.29-5.22-1.18-.93-1.52-1.44-1.52-2.45s.26-1.35,1.1-2.44l3.88-5.23a1.64,1.64,0,0,1,1.43-.67c1.35,0,2,1,4,2.1a18.83,18.83,0,0,0,9.27,2.62c2.7,0,5-.68,5-2.36,0-5.23-23.26.17-23.26-15.93,0-9.19,7.59-14.75,19.47-14.75" transform="translate(-180.85 -401.24)"/><path class="cls-1" d="M474.93,439.42a8.43,8.43,0,1,0-8.43,8.52,8.49,8.49,0,0,0,8.43-8.52m14.67.09c0,12.22-10.28,22-23.1,22s-23.09-9.78-23.09-22,10.28-22.25,23.09-22.25,23.1,9.94,23.1,22.25" transform="translate(-180.85 -401.24)"/><path class="cls-1" d="M507.72,440.44c0,5.22,2.19,8.59,7.42,8.59,4.55,0,7.92-2.61,7.92-7.75v-21a2,2,0,0,1,2-1.77H535.7a1.91,1.91,0,0,1,1.94,1.94V458.3a1.9,1.9,0,0,1-1.94,1.94H525.08a2,2,0,0,1-2-1.77V457c-2.61,2.52-5.65,4.55-11.72,4.55-11.63,0-18.2-7.5-18.2-18.8V420.29a2,2,0,0,1,2-1.77H505.7a2,2,0,0,1,2,1.77Z" transform="translate(-180.85 -401.24)"/><path class="cls-1" d="M557.62,458.47a2,2,0,0,1-2,1.77H545A1.9,1.9,0,0,1,543,458.3V420.46a1.9,1.9,0,0,1,1.94-1.94h10a2,2,0,0,1,2,1.77v2.36c2.53-3.54,7.08-4.89,10.45-4.89h2.36c.93,0,2.28.34,2.28,2.53v10.37a2.42,2.42,0,0,1-2.62,2.61h-4.13c-5.56,0-7.75,1.43-7.75,6.24Z" transform="translate(-180.85 -401.24)"/><path class="cls-1" d="M616.11,427.79a3.05,3.05,0,0,1,.43,1.35,2.38,2.38,0,0,1-1.35,1.94l-7.25,5.06a2.79,2.79,0,0,1-1.44.42c-1.09,0-1.85-1-2.27-1.6-1.77-2.45-4-4.13-7.25-4.13a8.56,8.56,0,0,0,0,17.11c3.29,0,5.48-1.69,7.25-4.13.42-.59,1.18-1.6,2.27-1.6a2.7,2.7,0,0,1,1.44.42l7.25,5.05a2.38,2.38,0,0,1,1.35,1.94,3,3,0,0,1-.43,1.35c-3.2,6.66-11.63,10.54-20,10.54-13.32,0-22.34-9.86-22.34-21.92,0-12.47,9.78-22.33,22.76-22.33,8.17,0,16.35,3.87,19.55,10.53" transform="translate(-180.85 -401.24)"/><path class="cls-1" d="M633.06,434.45h13.82c-.59-3.37-3.71-5.22-6.91-5.22s-6.32,1.85-6.91,5.22m15,10.54c.42-.59,1.18-1.6,2.28-1.6a2.69,2.69,0,0,1,1.43.42l7.16,4.47a2.13,2.13,0,0,1,1.35,1.85,3.16,3.16,0,0,1-.42,1.35c-3,6.4-11,10-19.47,10-13.74,0-22.34-9.7-22.34-21.83,0-12.48,9.19-22.42,22.09-22.42,13.31,0,20.9,10.62,20.9,20.82v1.77c0,1.18-.42,2.44-2.28,2.44h-26c.25,3.79,3.2,6.83,7.75,6.83a9.17,9.17,0,0,0,7.59-4.13" transform="translate(-180.85 -401.24)"/><path class="cls-1" d="M427.35,511.08c-.09.3-.17.42-.47.42H423c-.29,0-.38-.12-.46-.42l-10.31-28.74c-.09-.29,0-.42.33-.42h3.3c.3,0,.42.13.51.42l8.58,24.94,8.58-24.94c.08-.29.21-.42.5-.42h3.3c.3,0,.42.13.34.42Z" transform="translate(-180.85 -401.24)"/><path class="cls-1" d="M441.84,490.71c0-.3.13-.42.42-.42h2.46c.29,0,.42.12.42.42v20.37c0,.3-.13.42-.42.42h-2.46c-.29,0-.42-.12-.42-.42Zm-.59-8.37c0-.29.13-.42.42-.42h3.64c.29,0,.42.13.42.42V486c0,.29-.13.42-.42.42h-3.64c-.29,0-.42-.13-.42-.42Z" transform="translate(-180.85 -401.24)"/><path class="cls-1" d="M458.36,511.92c-4.94,0-8.91-2.91-8.91-6.88a.38.38,0,0,1,.42-.43h2.7c.3,0,.38.13.43.43.33,2.45,2.32,3.76,5.49,3.76,2.83,0,4.9-.89,4.9-3.09s-1.86-3-6.17-3.63c-5.07-.8-7.22-2.45-7.22-6.17,0-3.89,3.55-6,8-6,4.73,0,7.64,2.4,8.15,6.08a.37.37,0,0,1-.42.42h-2.37c-.29,0-.33-.12-.42-.42-.63-2.07-2.79-3-5.07-3-2.71,0-4.61.93-4.61,2.83,0,2.08,1.69,2.79,6,3.55,4.06.72,7.61,1.91,7.61,5.92,0,4.27-3.55,6.63-8.5,6.63" transform="translate(-180.85 -401.24)"/><path class="cls-1" d="M479.66,501.28c-3,0-5.32,1.1-5.32,3.71,0,2.46,1.69,3.81,4.52,3.81a6.24,6.24,0,0,0,6.55-6.59,16.87,16.87,0,0,0-5.75-.93M472,496.59a.26.26,0,0,1-.29-.26,1.85,1.85,0,0,1,0-.42c.85-3.21,3.59-6,8.54-6s8.41,2.95,8.41,7.39v10.19a6.24,6.24,0,0,0,.71,3.63c.05.09.09.13.09.21s-.13.21-.34.21h-3.34c-.29,0-.42-.12-.42-.42v-2.2a8.48,8.48,0,0,1-6.93,3.05c-3.68,0-7.61-2.2-7.61-6.72,0-4.7,3.81-7.06,8.58-7.06a22,22,0,0,1,6,.93V497.9c0-3.17-1.86-4.91-5.11-4.91a5,5,0,0,0-5,3.21.54.54,0,0,1-.59.39Z" transform="translate(-180.85 -401.24)"/><path class="cls-1" d="M515,481.5c6.38,0,10,3.93,10.14,8.24,0,.29-.13.42-.43.42h-2.7c-.29,0-.42-.13-.42-.42-.17-2.92-3-4.86-6.59-4.86s-6.39,1.6-6.39,4.35c0,3.17,3.39,4.35,7.82,5.54,5.41,1.43,9.68,3.42,9.68,8.11,0,6.09-4.52,9-10.9,9-6.13,0-10.91-3.8-10.91-9.38,0-.29.13-.42.43-.42h2.7c.3,0,.42.13.42.42.13,3.43,3,6,7.36,6,4.56,0,7.35-1.69,7.35-5.45,0-3-3.63-4.1-7.73-5.15-5.79-1.48-9.76-3.55-9.76-8.54,0-5.2,4.64-7.9,9.93-7.9" transform="translate(-180.85 -401.24)"/><path class="cls-1" d="M540.65,508.8c4.35,0,7.31-3.17,7.31-7.9s-3-7.91-7.31-7.91-7.31,3.17-7.31,7.91,2.95,7.9,7.31,7.9m0-18.93c6.08,0,10.77,4.31,10.77,11s-4.69,11-10.77,11-10.78-4.31-10.78-11,4.69-11,10.78-11" transform="translate(-180.85 -401.24)"/><rect class="cls-1" x="375.41" y="80.68" width="3.3" height="29.58" rx="0.42"/><path class="cls-1" d="M582.85,511.08c0,.3-.13.42-.42.42H580c-.3,0-.43-.12-.43-.42v-2.41a8.81,8.81,0,0,1-7,3.25c-4.44,0-7.35-2.74-7.35-7.69V490.71c0-.3.12-.42.42-.42h2.45c.29,0,.42.12.42.42v13c0,3.42,1.78,5.07,4.82,5.07,3.55,0,6.25-2.58,6.25-7.69v-10.4c0-.3.13-.42.43-.42h2.45c.29,0,.42.12.42.42Z" transform="translate(-180.85 -401.24)"/><path class="cls-1" d="M602.08,490.29c.3,0,.42.12.42.42V493c0,.3-.12.43-.42.43h-7v11.79c0,2.36,1.1,3.59,3.34,3.59a10.62,10.62,0,0,0,4-.64.79.79,0,0,1,.29-.08c.21,0,.3.17.3.42v2c0,.38,0,.59-.34.72a12.91,12.91,0,0,1-4.52.71c-4,0-6.38-2.4-6.38-6.42V493.42H588c-.3,0-.42-.13-.42-.43v-2.28c0-.3.12-.42.42-.42h3.76V484.2c0-.29.13-.42.42-.42h2.45c.3,0,.42.13.42.42v6.09Z" transform="translate(-180.85 -401.24)"/><path class="cls-1" d="M607.87,490.71c0-.3.12-.42.42-.42h2.45c.3,0,.42.12.42.42v20.37c0,.3-.12.42-.42.42h-2.45c-.3,0-.42-.12-.42-.42Zm-.6-8.37c0-.29.13-.42.43-.42h3.63c.3,0,.42.13.42.42V486c0,.29-.12.42-.42.42H607.7c-.3,0-.43-.13-.43-.42Z" transform="translate(-180.85 -401.24)"/><path class="cls-1" d="M626.55,508.8c4.35,0,7.31-3.17,7.31-7.9s-3-7.91-7.31-7.91-7.31,3.17-7.31,7.91,3,7.9,7.31,7.9m0-18.93c6.08,0,10.78,4.31,10.78,11s-4.7,11-10.78,11-10.78-4.31-10.78-11,4.69-11,10.78-11" transform="translate(-180.85 -401.24)"/><path class="cls-1" d="M641.57,490.71c0-.3.13-.42.42-.42h2.45c.3,0,.42.12.42.42v2.41a8.79,8.79,0,0,1,7-3.26c4.44,0,7.35,2.75,7.35,7.7v13.52c0,.3-.12.42-.42.42h-2.45c-.3,0-.42-.12-.42-.42v-13c0-3.42-1.78-5.07-4.82-5.07-3.55,0-6.26,2.58-6.26,7.69v10.4c0,.3-.12.42-.42.42H642c-.29,0-.42-.12-.42-.42Z" transform="translate(-180.85 -401.24)"/><path class="cls-1" d="M385.11,499.54h9.63l-4.81-13.35ZM396,502.92H383.88L381,511.08c-.09.3-.17.42-.51.42h-2.83c-.3,0-.47-.12-.47-.42a.52.52,0,0,1,0-.25l10.48-28.49c.08-.29.12-.42.42-.42h3.63c.3,0,.34.13.42.42l10.49,28.49a.64.64,0,0,1,0,.25c0,.3-.17.42-.47.42h-2.83c-.34,0-.42-.12-.51-.42Z" transform="translate(-180.85 -401.24)"/></svg>